<svg width="153" height="153" viewBox="0 0 153 153" fill="none" xmlns="http://www.w3.org/2000/svg">
<path d="M54.2615 33.0437C57.08 32.46 59.8545 32.0488 62.6506 31.7439C67.8366 31.1784 73.0382 30.918 78.2477 31.0227C82.4141 31.1065 86.5793 31.3099 90.7317 31.7483C95.7283 32.2757 100.649 33.0944 105.459 34.6168C110.124 36.0934 113.659 38.8573 116.132 43.0778C117.948 46.1788 119.843 49.2406 121.22 52.5646C121.854 54.0954 122.828 54.7848 124.436 54.9227C128.348 55.2583 130.837 57.4806 132.264 61.0417C133.832 64.9549 134.803 69.0249 135.488 73.1715C135.926 75.818 136.277 78.4822 136.256 81.1629C136.217 86.137 135.471 91.0019 133.562 95.6332C132.255 98.8033 130.064 101.126 126.846 102.417C126.305 102.634 125.895 102.93 125.727 103.551C123.265 112.671 117.383 118.389 108.349 120.937C105.251 121.811 102.064 122.214 98.8779 122.62C95.5325 123.046 92.1684 123.256 88.8105 123.539C87.7512 123.629 86.6855 123.646 85.6256 123.687C80.999 123.868 76.3687 124.02 71.7381 123.841C67.7029 123.685 63.6632 123.534 59.6502 123.073C54.4106 122.471 49.1434 121.986 44.0787 120.371C39.7065 118.976 35.7495 116.885 32.5657 113.489C30.0587 110.814 28.5293 107.633 27.7357 104.099C27.4891 103.001 27.0092 102.444 25.9264 102.087C22.819 101.06 20.8035 98.8072 19.6095 95.837C18.2047 92.3421 17.4608 88.6806 17.1567 84.929C16.4988 76.8148 17.9558 69.0153 20.7159 61.4236C21.4588 59.3801 22.4677 57.4712 24.445 56.3006C25.808 55.4938 27.342 55.2511 28.8713 55.1221C29.9187 55.0337 30.5073 54.547 30.9471 53.6612C32.6176 50.2965 34.6035 47.1207 36.6338 43.9604C40.0918 38.5781 45.0338 35.4232 51.111 33.8417C52.1379 33.5745 53.1663 33.3134 54.2615 33.0437ZM61.1734 115.99C62.5389 116.254 63.9301 116.159 65.3064 116.241C69.4775 116.486 73.6588 116.42 77.8367 116.455C82.3091 116.493 86.7747 116.308 91.2375 116.092C94.9459 115.913 98.6457 115.542 102.315 114.966C104.725 114.588 107.138 114.155 109.392 113.149C113.935 111.121 116.814 107.563 118.591 103.026C120.695 97.6569 121.249 92.0108 121.464 86.3164C121.536 84.4302 121.432 82.5414 121.344 80.6523C121.222 77.9957 120.95 75.3592 120.452 72.7557C119.354 67.0274 117.666 61.4679 115.387 56.0974C113.681 52.0749 111.775 48.1531 109.158 44.621C107.24 42.0307 104.797 40.2778 101.605 39.4954C95.7476 38.0593 89.7841 37.439 83.7924 37.192C77.8683 36.9478 71.9342 36.9927 66.017 37.6026C62.215 37.9946 58.4237 38.4297 54.6834 39.2323C51.8406 39.8424 49.064 40.6445 46.554 42.1739C43.3251 44.1413 41.2331 47.1047 39.4855 50.3466C37.0398 54.8837 35.324 59.7172 33.7727 64.6164C31.4568 71.9305 30.2135 79.4113 30.2107 87.0905C30.2096 90.0691 30.4027 93.0361 30.8587 95.9783C31.4105 99.538 32.2933 103.005 34.0664 106.183C36.2049 110.015 39.3346 112.622 43.6166 113.731C49.3223 115.209 55.1636 115.672 61.1734 115.99Z" fill="#C15E50"/>
<path d="M87.153 53.5078C89.4468 53.7184 91.6688 53.8905 93.8824 54.138C98.4702 54.651 103.039 55.2708 107.44 56.7677C108.668 57.1854 109.561 57.9383 110.191 59.0516C112.41 62.9699 113.887 67.1663 114.869 71.5451C115.705 75.2715 115.986 79.056 115.819 82.8609C115.58 88.3004 114.727 93.6309 112.605 98.693C111.929 100.306 111.059 101.777 109.537 102.777C108.243 103.627 106.762 103.831 105.302 104.059C100.819 104.758 96.3085 105.204 91.7823 105.555C85.0345 106.079 78.2797 106.099 71.5271 105.956C67.3621 105.868 63.1996 105.506 59.044 105.168C55.4243 104.875 51.8148 104.453 48.203 104.068C47.2033 103.961 46.2148 103.75 45.2152 103.643C43.6339 103.474 42.6075 102.536 41.8196 101.265C40.2437 98.7228 39.4097 95.8989 38.7303 93.0185C37.898 89.4894 37.5056 85.8993 37.5342 82.2865C37.6034 73.5237 39.9345 65.4584 45.2224 58.3595C46.6681 56.4187 48.6072 55.3641 51.0129 55.0858C53.8805 54.754 56.7333 54.2772 59.6064 54.0152C62.2206 53.7768 64.8432 53.601 67.4683 53.4606C71.295 53.2559 75.1203 53.1161 78.9499 53.1889C81.6601 53.2403 84.3683 53.3949 87.153 53.5078ZM97.5351 67.8786C95.1375 65.5137 91.5884 65.1652 89.0305 67.0836C87.0892 68.5395 86.1661 70.5567 86.1367 72.9419C86.0887 76.8252 86.1281 80.7097 86.1189 84.5936C86.1172 85.2864 86.1668 85.9681 86.2851 86.6512C86.9976 90.7673 91.3158 93.2622 95.1748 91.7782C97.7261 90.7971 99.5753 88.1528 99.5864 85.403C99.6029 81.2796 99.6001 77.1562 99.5888 73.0328C99.5835 71.0951 98.9381 69.3919 97.5351 67.8786ZM53 78C53.0002 80.3154 53.009 83.0876 53 85.403C53 85.7234 52.8815 87.4236 53 88C53.8254 92.0141 58.7225 93.1656 62.4802 91.9723C65.0738 91.1486 67.1377 88.4551 67.16 85.7234C67.1958 81.3325 67.1661 76.9412 67.1737 72.5501C67.1746 72.0657 67.1043 71.5979 66.9873 71.1338C66.0445 67.3941 62.6756 66 60 66C57 66 53.0367 68.5677 53 71.5451C52.9777 73.3545 53.0009 76.0305 53 78Z" fill="#C15E50"/>
</svg>
